<svg viewBox="0 0 371.6 322.1" xmlns="http://www.w3.org/2000/svg">
  <path d="M299.9 248.3c9.2-6.8 32.1-18.6 66.3-8.3 3.1.9 5.3 3.9 5.3 7.1.1 11.2-2.3 37.6-24.3 59.5-1.5 1.5-4.1 0-3.5-2.1 3.8-13.8 11.4-43.5 9-47.6-2.8-4.7-37.5-5-51.5-4.9-2.1 0-2.9-2.6-1.3-3.8zm-298.4 10.3c-3.9-3.5.3-9.8 5.1-7.5 33.2 16.4 95.8 41.7 164.9 41.7 70.7 0 129.8-16.9 159.5-27.3 4.8-1.7 8.3 4.6 4.3 7.9-23.6 19.1-74.3 48.7-162 48.7-87.4 0-144.2-38.4-171.9-63.5zm280.6-62.1c-7-10.6-16.2-22.8-16.3-34.8v-71.9c0-28.7 2.1-89.8-79.8-89.8-66.6 0-87.3 35.5-93.6 57.5-2.5 8.7 3.4 17.6 12.4 18.5 12.5.9 33.9 7.4 40.4-5.4 5-10.5 13.7-26.1 40.7-26.1 10.4 0 25.1 4.4 25.1 17.3 3.3 29.8-4.1 35.5-32.3 34.7-19 0-91.4 9.8-91.4 82.2s76.8 64.1 81.9 62.9c9.5-2.2 27.3-8.7 44.1-24.7 9.3-6.4 17.8 10.6 23.3 17.3 5.3 6.5 14.9 7.2 21.1 1.5 9.8-9.7 33.4-24.6 24.5-39.1zm-111-4c-25.7 0-25-23.3-19-34.3 5.6-10.3 20.2-28.6 59.6-29.9-.7 36.2-8.2 63.6-40.6 64.2z"/>
</svg>