<svg viewBox="0 0 446 270.2" xmlns="http://www.w3.org/2000/svg">
  <path d="M109.3 270.2h17.7c-7.1-3.9-13.2-10.7-17.6-16.6zm-22.1 0v-188.7l-87.2 188.7zm233.9 0l4.3-9.3c-3.9 3.7-8.6 6.9-14.2 9.3zm124.9-270.2h-321.1l-36.9 79.8h22.6v69.5c13.3-13 25.2-21.1 40.7-21.6 37 0 58 30.4 58 69.5 0 26.8-9 60.8-37.2 73.1h89.7c-23.9-9.8-37.4-34.3-37.4-65.1 0-43.1 20.8-77.5 66.8-77.5 36.5 0 50.3 26.6 52.2 50.9h-22.6c-2.9-18.6-13.3-29.8-33-29.8-29 0-38.3 27.7-38.3 52.4 0 24 5.9 53.5 38.1 53.5 15.7 0 29.3-11.7 33.3-33h22.6v.3zm-298.3 254.7c25.6 0 37.5-23.2 37.5-53.8 0-17.8-1.9-52.2-38.1-52.2-33.8 0-37.5 36.5-37.5 59.1 0 37 23.2 46.9 38.1 46.9z"/>
</svg>