<svg viewBox="0 0 117 85" xmlns="http://www.w3.org/2000/svg">
	<path d="M86.2 84s-3.6-4.3-6.6-8.1C92.7 72.2 97.7 64 97.7 64c-4.1 2.7-8 4.6-11.5 5.9-5 2.1-9.8 3.5-14.5 4.3-9.6 1.8-18.4 1.3-25.9-.1-5.7-1.1-10.6-2.7-14.7-4.3-4.4-1.8-7.5-3.3-11.4-5.9 0 0 4.8 8 17.5 11.8-3 3.8-6.7 8.3-6.7 8.3C8.4 83.3 0 68.8 0 68.8c0-32.2 14.4-58.3 14.4-58.3C28.8-.3 42.5 0 42.5 0l1 1.2c-18 5.2-26.3 13.1-26.3 13.1s2.2-1.2 5.9-2.9c7.7-3.2 16.3-5.7 24.4-6.5 6.1-.8 13-1 20.2-.2 9.5 1.1 19.7 3.9 30.1 9.6 0 0-7.9-7.5-24.9-12.7L74.3 0S88-.3 102.4 10.5c0 0 14.4 26.1 14.4 58.3 0 0-8.5 14.5-30.6 15.2zM39.7 37.3c-5.7 0-10.2 5-10.2 11.1s4.6 11.1 10.2 11.1c5.7 0 10.2-5 10.2-11.1.1-6.1-4.5-11.1-10.2-11.1zm36.5 0c-5.7 0-10.2 5-10.2 11.1s4.6 11.1 10.2 11.1c5.7 0 10.2-5 10.2-11.1s-4.5-11.1-10.2-11.1z"/>
</svg>