<svg viewBox="0 0 99.3 99.3" xmlns="http://www.w3.org/2000/svg">
  <path d="M46.6 0c-2.6.4-5.199.699-7.799 1.199-19.4 4.2-35.102 20.801-38.102 40.301-.3 1.7-.499 3.4-.699 5.1v6.201c.4 2.5.699 4.998 1.199 7.398 4.3 20 20.3 35.1 40.5 38.5 24.3 4 48.001-10.498 55.301-33.898 8.9-28.2-8.299-57.601-37.199-63.701-2.3-.5-4.6-.7-7-1.1h-6.201zm-23.6 19.801h20.5c10.2 0 18.8 7.1 20.6 17 1.8 10-3.699 19.599-13.299 23.299-.2.1-.501.201-.801.301 1.8 4.8 7.801 8.899 12.301 8.299v-3.398c4.4 2.3 8.498 4.6 12.898 7l-12.799 7v-3.5c-7.6-.5-13.4-3.7-17.4-10-2.3-3.5-3.5-8.401-2.9-11.301.9-.1 1.9-.099 2.9-.199 7.4-.8 12.8-7.1 12.5-14.4-.3-7.3-6.2-13.201-13.6-13.301-6.4-.1-12.9 0-19.4 0h-1.5v-6.799z"/>
</svg>