<svg viewBox="0 0 612 333.3" xmlns="http://www.w3.org/2000/svg">
  <path d="M522.7 138.2c-.7-.1-1.4-.2-2.1-.2-9.5-78.3-74.8-138-153.1-138-27.9 0-71.1 13.6-91.2 25.8l-6.6 4v302.8l256.7.7c44.8 0 85.6-48 85.6-100.6 0-49.5-37.5-89.2-89.3-94.5zm-288.8-110.4c-7.6 0-13.8 6.2-13.8 13.8v275.2c0 7.6 6.2 13.8 13.8 13.8 7.6 0 13.8-6.1 13.8-13.8v-275.2c0-7.6-6.2-13.8-13.8-13.8zm-55 27.5c-7.6 0-13.8 6.2-13.8 13.8v247.7c0 7.6 6.2 13.8 13.8 13.8 7.6 0 13.8-6.1 13.8-13.8v-247.7c0-7.6-6.2-13.8-13.8-13.8zm-55 0c-7.6 0-13.8 6.2-13.8 13.8v247.7c0 7.6 6.2 13.8 13.8 13.8 7.6 0 13.8-6.1 13.8-13.8v-247.7c0-7.6-6.2-13.8-13.8-13.8zm-55 55c-7.6 0-13.8 6.2-13.8 13.8v192.6c0 7.6 6.2 13.8 13.8 13.8 7.6 0 13.8-6.1 13.8-13.8v-192.6c0-7.6-6.2-13.8-13.8-13.8zm-55.1 41.3c-7.6 0-13.8 6.2-13.8 13.8v123.8c0 7.6 6.2 13.8 13.8 13.8 7.6 0 13.8-6.2 13.8-13.8v-123.8c0-7.6-6.2-13.8-13.8-13.8z"/>
</svg>