<svg viewBox="0 0 1674.9 1674.9" xmlns="http://www.w3.org/2000/svg">
  <path d="M1332.8 742.4c-269.9-160.3-715.2-175-972.9-96.8-41.4 12.6-85.1-10.8-97.7-52.2-12.5-41.4 10.8-85.1 52.2-97.7 295.8-89.8 787.6-72.4 1098.3 112 37.2 22.1 49.4 70.2 27.4 107.3-22.1 37.2-70.2 49.5-107.3 27.4zm-8.8 237.4c-18.9 30.7-59.1 40.4-89.8 21.5-225-138.3-568.2-178.4-834.5-97.6-34.5 10.4-71-9-81.5-43.5-10.4-34.5 9.1-70.9 43.5-81.4 304.2-92.3 682.3-47.6 940.7 111.3 30.7 18.9 40.4 59.1 21.5 89.8zm-102.5 228c-15 24.7-47.2 32.4-71.8 17.4-196.7-120.2-444.2-147.3-735.7-80.7-28.1 6.4-56.1-11.2-62.5-39.2-6.4-28.1 11.1-56.1 39.3-62.5 319-72.9 592.6-41.5 813.4 93.3 24.6 15 32.4 47.2 17.3 71.8zm-384.1-1207.8c-462.5 0-837.4 374.9-837.4 837.4s374.9 837.4 837.4 837.4 837.4-374.9 837.4-837.4c.1-462.5-374.9-837.4-837.4-837.4"/>
</svg>