<svg viewBox="0 0 512 360.3" xmlns="http://www.w3.org/2000/svg">
  <path d="M492 30.9c-18.4-21.9-52.6-30.9-117.7-30.9h-236.6c-66.6 0-101.3 9.5-119.7 32.9-18 22.8-18 56.4-18 102.9v88.6c0 90.1 21.3 135.8 137.7 135.8h236.6c56.5 0 87.8-7.9 108.1-27.3 20.7-19.8 29.6-52.2 29.6-108.4v-88.6c0-49.1-1.4-82.9-20-105zm-163.3 161.5l-107.4 56.1c-2.4 1.3-5 1.9-7.6 1.9-3 0-5.9-.8-8.6-2.4-4.9-3-8-8.4-8-14.1v-111.9c0-5.8 3-11.1 7.9-14.1s11.1-3.2 16.2-.5l107.4 55.8c5.5 2.8 8.9 8.5 8.9 14.6 0 6.2-3.4 11.8-8.9 14.7z"/>
</svg>