<?xml version="1.0" encoding="utf-8"?>
<!-- Generator: Adobe Illustrator 18.0.0, SVG Export Plug-In . SVG Version: 6.00 Build 0)  -->
<!DOCTYPE svg PUBLIC "-//W3C//DTD SVG 1.1//EN" "http://www.w3.org/Graphics/SVG/1.1/DTD/svg11.dtd">
<svg version="1.1" id="Layer_1" xmlns="http://www.w3.org/2000/svg" xmlns:xlink="http://www.w3.org/1999/xlink" x="0px" y="0px"
	 width="595.3px" height="595.3px" viewBox="0 0 595.3 595.3" enable-background="new 0 0 595.3 595.3" xml:space="preserve">
<g>
	<defs>
		<rect id="SVGID_1_" x="0" y="0" width="595.3" height="595.3"/>
	</defs>
	<clipPath id="SVGID_2_">
		<use xlink:href="#SVGID_1_"  overflow="visible"/>
	</clipPath>
	<rect x="0" y="0" clip-path="url(#SVGID_2_)" fill="#7B5B9D" width="595.3" height="595.3"/>
	<circle clip-path="url(#SVGID_2_)" fill="#ECDCCC" cx="402" cy="147.4" r="101.9"/>
	<g clip-path="url(#SVGID_2_)">
		<path fill="#D5C7B9" d="M324.1,173.1c1.8,1.5,3.9,2.5,6.2,2.8c5.4,0.6,12.3-4.1,10.5-10.3c-1.6-5.8-8.2-5.7-9.6-11.1
			c-1.5-5.6-4.1-11.1-10.7-11.1c-1.8,0-3.9,1.3-4.2,3.2c-0.2,1.1-0.3,2.2-0.4,3.3c-0.5,0.6-0.8,1.5-0.9,2.5
			c-0.5,7.5,2.2,14.3,7.3,19.7C322.8,172.6,323.4,172.9,324.1,173.1z"/>
		<path fill="#D5C7B9" d="M376.6,203.8c2.1,1.6,4.6,2.3,6.9,1.7c0.4,0.2,0.8,0.3,1.3,0.4c2.4,0.3,4.7-0.5,5.4-3
			c0.1-0.3,0.1-0.6,0.1-0.9c0.2-0.5,0.2-1.1,0-1.7c0.2-2.4-1.8-4.8-4.5-4.9c-0.5-0.4-1.1-0.7-1.9-0.9c-1.9-0.5-4,0.2-5.3,1.5
			c-0.7,0.2-1.5,0.6-2.1,1C373.9,198.7,374.3,202,376.6,203.8z"/>
		<path fill="#D5C7B9" d="M453,200.9c1.4-3.8-3.2-7.6-6.7-6.2c-1.6-0.7-3.5-0.4-4.4,1.3c-0.8,0.9-1.7,1.8-2.8,2.5
			c-1.2-0.9-3-1.3-4.4-1c-7.2,1.5-11.1,8.8-9.5,15.7c0.7,3,4.6,4.7,7.2,3.1c0.3,0.3,0.5,0.5,0.8,0.8c2.5,1.9,5.9,1.8,8.5,0.1
			c1.3-0.9,1.9-2.1,2.1-3.4C448,210.4,451.1,206,453,200.9z"/>
		<path fill="#D5C7B9" d="M481.1,185c1-0.4,1.8-0.9,2.6-1.7c1.9-1.8,3.1-4.1,4.1-6.5c1-2.7-1.6-6.2-4.5-5.9c-3,0.3-5.7,1.6-7.2,4.4
			c-0.6,1.2-0.7,2.5-0.4,3.7c-0.3,0.3-0.7,0.5-1.4,1c0,0,0,0,0,0c-3.4,2.1-1.6,8,2.9,6.9c1.2-0.3,2.3-0.9,3.4-1.5
			C480.6,185.5,481.8,184.7,481.1,185z M484,180.2C484,180.2,484,180.2,484,180.2C484,180.2,484,180.2,484,180.2
			C484,180.2,484,180.2,484,180.2C484,180.2,484,180.2,484,180.2z"/>
		<path fill="#D5C7B9" d="M418.4,220.1c-6.1,1-11.6,4.8-17.4,6.8c-0.7,0.2-1.4,0.4-2.1,0.6c-6.9-4.2-15.7-5-23.4-1.9
			c-2.9,1.1-4.1,3.3-3.6,6.4c1.5,10.2,12.6,14.3,21.3,10.5c2.8-1.2,4.1-2.9,7.4-2.3c2.8,0.5,5.6,1,8.5,1.3c6,0.5,12.4-0.5,17.9-3
			c4.4-2,5.9-7.7,4.1-11.8C428.8,221.7,423.6,219.3,418.4,220.1z"/>
		<path fill="#D5C7B9" d="M468.4,204.2c-0.5,0.7-0.8,1.4-1.1,2.1c-2.7-0.2-5.4,0.6-7.7,2.5c-0.2,0.2-0.4,0.4-0.6,0.6
			c-3.9,1.5-6.7,4.8-7.2,8.9c-0.7,0.6-1.4,1.2-2.2,1.7c-4.5,3.1-1.6,9.5,3.6,8.5c3.1-0.5,5.5-2.3,7.5-4.7c0.5-0.6,1.8-3.1,3.1-5.1
			c0.9-0.8,1.7-1.7,2.5-2.6c0.2,0,0.3,0,0.5,0c2,1.2,4.1,0.6,5.9-0.8c3.3-2.7,5.3-7.1,3.1-11.1C474.1,201.1,470.2,201.8,468.4,204.2
			z"/>
		<path fill="#D5C7B9" d="M490.1,194.8c-0.1-0.3-0.2-0.6-0.4-0.9c0.3,0.8,0.3,0.6-0.2-0.5c-2-3.3-6.6-2.9-9.2-0.7
			c-1.1,0.9-1.2,2.3-0.8,3.5c-0.3,0.9-0.4,1.8-0.2,2.7c0.1,0.6,0.3,1.1,0.6,1.6c-0.1-0.4-0.1-0.2,0.2,0.5c0.2,0.4,0.5,0.7,0.8,0.9
			c2.4,2.1,5.7,1.6,7.9-0.5c1-1.1,1.7-2.6,1.7-4.1c0-0.7-0.1-1.3-0.2-2C490.3,195.2,490.2,195,490.1,194.8z"/>
		<path fill="#D5C7B9" d="M400.4,213.8c5.5,3.4,13.3,0.2,16.7-4.6c2.7-3.8-3.6-8.7-6.5-5c-0.8,1-1.9,2.3-3.2,2.8
			c-0.4,0.2-0.8,0.3-1.2,0.4c-1.8-0.9-4.1-0.7-5.7,0.5C398.3,209.3,398.1,212.4,400.4,213.8z"/>
		<path fill="#D5C7B9" d="M490,140.4c-1,1.9-0.6,4.3-1.2,6.4c-0.4,1.5,0.3,3,1.6,3.8c2.1,1.4,4.7,0.9,6-1.2c0.7-1.1,0.7-2.8,0-4
			c-0.4-0.7-0.9-1.1-1.4-1.4c-0.1-1.6-0.3-3.2-1.4-4.5C492.5,138.4,490.3,139,490,140.4z"/>
		<path fill="#D5C7B9" d="M499.9,160.2c-0.1-0.5-0.6-0.8-1.1-0.8c-0.4-0.1-0.9,0.1-1.3,0.3c-0.3,0.1-0.4,0.2-0.1,0.1
			c-0.2,0-0.3,0-0.5,0.1c-0.7-0.4-1.6-0.7-2.4-0.7c-2.3,0-4.1,2.3-3.5,4.6c0.2,0.9,0.9,1.7,1.7,2.2c0.3,0.2,0.6,0.3,1,0.4
			c1.3,1,3.6,0.9,4.5-0.8c0.1-0.1,0.2-0.3,0.3-0.4c0.4-0.7,0.9-1.4,1.1-2.1c0.1-0.3,0.1-0.6,0.1-0.9c0-0.1,0.1-0.1,0.1-0.2
			C499.9,161.2,500,160.7,499.9,160.2z"/>
		<path fill="#D5C7B9" d="M357.9,213.6c-2.7-0.4-5.4-1-8.1-1.5c-1.5-4.1-3.7-7.7-7.4-10.9c-1.9-1.6-5.2-1.7-6.4,0.8
			c-0.7,1.5-1.4,3.1-2.1,4.6c-0.8,1.8-0.8,3.7,0.7,5.2c4.9,5,9.5,10.8,15.1,15c5.4,4.1,10.7-2.5,11.8-7.2
			C361.9,217.2,360.7,214,357.9,213.6z"/>
		<path fill="#D5C7B9" d="M377.7,214.8c1-1.7,0.4-3.8-1.3-4.9c-1.2-0.8-2.4-0.7-3.7-0.9c-1-0.1-1.9-0.5-2.9-0.7
			c-0.9-0.3-1.9,0.2-2.4,1c-0.6,1.1-0.2,2.2,0.8,2.9c0.7,0.5,1.5,1,2.1,1.7c0.5,0.6,0.5,0.7,1.1,1.2c0.7,0.7,1.4,1,2.3,1.3
			C375.2,217,377,216.1,377.7,214.8z"/>
		<path fill="#D5C7B9" d="M484.1,117.8c-0.6,0.9-0.8,2-0.6,3c0.6,2,2.5,2.8,4.4,2.5c0.7-0.1,1.3-0.3,1.9-0.7c1.7-1,2-3,1.2-4.7
			c0.4,0.9-0.4-1-0.6-1.2c-0.3-0.6-0.8-1.2-1.3-1.7c-0.9-0.9-2.4-1.7-3.7-1.6c-1.7,0.1-2.8,2-1.8,3.4
			C483.7,117.2,483.9,117.5,484.1,117.8z"/>
		<path fill="#D5C7B9" d="M467.5,157.8c-0.5,0.6-0.9,1.3-1.3,2c0,0,0,0,0.1,0c-0.8,1.5-0.8,3.2,0.5,4.6c1.4,1.4,4,1.5,5.4,0
			c0.5-0.6,1-1.2,1.5-1.8c0.9-1.2,1.3-2.6,1-3.9c0-0.3-0.1-0.6-0.2-0.9c0-0.3-0.2-0.6-0.4-0.8c-0.1-0.9-0.9-1.8-1.9-1.4
			c-0.3,0.1-0.5,0-0.8,0c-0.9,0.1-1.5,0.3-2.1,0.8C468.5,156.6,467.9,157.2,467.5,157.8z"/>
		<path fill="#D5C7B9" d="M458,183.9c0.7-0.3,1.3-0.8,1.9-1.2c1-0.7,1.6-1.3,1.9-2.4c0-0.1,0.1-0.1,0.2-0.2c0.2-0.4,0.2-0.5,0.1-0.3
			c0.8-0.8,0.1-1.9-0.8-2c0.2,0,0.1-0.1-0.3-0.2c0,0-0.1,0-0.1,0c-0.8-0.5-1.5-0.8-2.6-0.8c-1.1,0-2.2,0.1-3.2,0.3
			c-2,0.4-3.1,2.7-2.6,4.5C453.3,184.2,455.9,184.9,458,183.9z"/>
		<path fill="#D5C7B9" d="M362.8,187.1c-3-2.1-6-3.9-9.2-5.7c0.2-1.5-1.2-3.1-2.8-2.5c-0.9,0.3-1.7,0.7-2.6,1.2
			c-1.7,0.9-1.9,3.4-0.6,4.7c2.1,2.1,4.1,4.2,6.3,6.2c-0.5,1.7,0,3.6,1.9,4.6c3.1,1.6,6.9,0.9,8.5-2.4
			C365.6,190.9,364.9,188.6,362.8,187.1z"/>
		<path fill="#D5C7B9" d="M332.7,186.4c-1.9-3.4-5.8-4.1-9.1-2.6c-3.3,1.5-4.1,5.9-2.6,8.9c1.5,3.1,5.3,4.1,8.3,2.6
			c1.4-0.7,2.5-1.9,3-3.3c0.2-0.6,0.4-1.4,0.3-2.1c0-0.1,0-0.1-0.1-0.2C333.1,188.7,333.3,187.5,332.7,186.4z M327,191.1
			c-0.5,0-0.8-0.8-0.9-0.9c0-0.4-0.1-0.4,0.1-0.8c-0.1,0.2,0,0.1,0.2,0c0,0,0,0,0.2,0c0,0,0.7,0.1,0.7,0.1c0.4,0.1,0.4,0.1,0.2,0.1
			c-0.3-0.2,0.3,0.4,0.4,0.4c0.1,0.1,0.2,0.3,0.3,0.4C328,190.8,327.5,191.1,327,191.1z"/>
		<path fill="#D5C7B9" d="M315.5,130.6c0.2,0.5,0.4,1,0.6,1.5c1.2,2.3,5.4,2,5.9-0.8c0.4-2.4-0.1-4.6-0.5-7c-0.5-2.8-1-5.5-1.5-8.3
			c-0.8-4.1-7.6-2.3-6.4,1.6c0.1,0.6,0.2,1.3,0.2,1.9c-0.1,1.7-0.6,3.6-0.6,5.1c0,1.9,0.4,3.7,1.2,5.4
			C314.7,130.6,315.1,130.7,315.5,130.6z"/>
		<path fill="#D5C7B9" d="M436.7,71.6c0.7,2.5,3.5,4.2,6,4.4c1.6,0.2,2.9-1.4,2.9-2.9c0-1.7-1.3-2.8-2.9-2.9c-0.5,0-0.6-0.8-0.7-1.2
			c-0.4-1.5-1.9-2.3-3.4-1.9c-1.5,0.4-3.1-0.2-4.3,1.1c-0.5,0.5-0.5,1.2-0.2,1.7C434.6,70.9,435.7,71.2,436.7,71.6z"/>
		<path fill="#D5C7B9" d="M459.7,100.5c0.4,0.1,1,0.4,1.4,0.7c0.3,1.3,0.9,2.5,1.9,3.6c2.1,2.3,5.8,0.4,5.9-2.4
			c0-1.8-0.5-3.4-1.4-4.9c0.1-0.1,0.2-0.3,0.3-0.4c1.7-2.4-1.5-5-3.8-3.7c0,0,0,0,0,0c0,0,0,0,0,0c-0.9-0.8-2.1-0.6-2.9,0.2
			c-0.1,0-0.3,0-0.4-0.1C456.6,93.1,455.9,99.5,459.7,100.5z"/>
		<path fill="#D5C7B9" d="M444.3,84c-1.1,0.7-1.2,2.1-0.4,3.1c0,0,0.1,0.1,0.1,0.1c0.1,0.2,0.3,0.3,0.6,0.4c0.2,0.3,0.5,0.6,0.7,0.9
			c0.4,0.5,0.9,0.8,1.5,0.6c0.6-0.2,1.2-1,0.9-1.6c-0.1-0.2-0.2-0.5-0.3-0.7c0-0.1-0.1-0.2-0.1-0.4c0-0.1,0-0.1-0.1-0.1
			c0-0.3,0-0.6,0-0.8c0-0.1,0-0.1-0.1-0.2C446.8,84,445.4,83.4,444.3,84z"/>
		<path fill="#D5C7B9" d="M381.6,70.7c0.1-0.1,0.2-0.2,0.4-0.4c0.4-0.4,0.5-0.8,0.6-1.3c0.2-0.1,0.3-0.3,0.4-0.4
			c0.2-0.3,0.2-0.7-0.2-0.8c-0.2-0.1-0.4-0.1-0.6-0.1c-0.2-0.2-0.3-0.4-0.6-0.5c-0.3-0.2-0.6-0.2-1-0.3c-0.8-0.2-1.6,0-2.2,0.6
			c-0.6,0.6-0.8,1.4-0.6,2.2C378.3,71.4,380.4,71.9,381.6,70.7z"/>
		<path fill="#D5C7B9" d="M371.9,90.7c0.2-0.8,0.8-1.4,0.9-2.2c0.1-1-0.9-2.3-1.9-1.5c-0.5,0.4-0.9,0.8-1.4,1.2c0.3,0,0.2,0-0.5,0.1
			c-0.4,0.1-0.8,0.4-1.2,0.6c-1.3,0.8-2.6,0.3-4.1,1.1c-2.8,1.5-1.4,5.6,1.5,5.7c2,0.1,3.7-1.5,5.1-2.8
			C371.1,92.2,371.7,91.5,371.9,90.7z"/>
		<path fill="#D5C7B9" d="M338.2,113.6c0.9,0.5,2,0.3,2.7-0.4c0,0,0,0,0,0c0,0,0,0,0,0c0,0,0.1-0.1,0.1-0.1c0.6-0.7,1.1-1.5,1.6-2.2
			c0.2-0.2,0.2-0.5,0.3-0.8c0.4-0.7,0.8-1.3,1.1-2.1c0,0,0.1-0.1,0.1-0.1c0.8-1.5-1.2-3.2-2.5-1.9c-0.1,0.1-0.1,0.1-0.2,0.2
			c-0.5,0.4-0.9,0.8-1.4,1.4c-0.5,0.2-1,0.5-1.3,1c-0.4,0.7-1,1.3-1.3,2C336.9,111.7,337.1,112.9,338.2,113.6z"/>
		<path fill="#D5C7B9" d="M342,91.1c0.5,0,1.1-0.2,1.5-0.6c0.6-0.6,0.6-1.3,0.5-2c0-0.2,0-0.3-0.1-0.5c-0.6-1.9-3.1-1.9-3.8,0
			c-0.1,0.2-0.1,0.3-0.1,0.5c-0.1,0.6-0.1,1.1,0.2,1.6C340.6,90.7,341.3,91.1,342,91.1z"/>
	</g>
	<path clip-path="url(#SVGID_2_)" fill="#522E78" d="M637.6,386.8c-1.6-8.9-3.1-17.7-4.7-26.6c-1.3-7.2-3.7-14.4-9.6-19.1
		c-11.2-8.9-27.2-4.7-38.6,1.6c-22.6,12.4-37.7,37.1-39.8,62.7c-16.4-9.7-37.3-10.4-54-0.3c-15.8,9.4-24.6,28-24.1,46.1
		c-12.3-7-27-9.2-41-5.5c-13.8,3.6-25.3,13.4-32.3,25.6c-9.7-12.9-24.5-21.2-40.8-22.9c-17.3-1.8-34.6,5.9-46.2,18.5
		c-12.6-25-37.2-42.3-65.3-45.6c-29.4-3.5-59.5,12-76,36.2c-34.6-24-82.9-25.3-119.1-3.9C23.4,466.9,0.1,488.6-11.1,514
		c-3-12.1-9.3-22.6-20.5-29.8c-4.5-2.9-8.6,4.2-4.2,7.1c20.1,13,18.3,43.5,15,63.9c-4.2,26.5-9.3,54.6,8.7,77.3
		c15.1,19.1,41.7,25.7,64.3,30.5c31,6.6,62.6,10.8,94.2,13.5c63.8,5.3,128,3.1,191.7-2.6c31.9-2.8,63.7-6.6,95.4-10.9
		c28.3-3.8,56.9-7.4,84.9-13.2c24.5-5.1,48.9-12.6,70.5-25.5c22.3-13.3,39.7-32.9,50.1-56.7C664.2,510.3,648.1,445.6,637.6,386.8z"
		/>
	<g clip-path="url(#SVGID_2_)">
		<path fill="#3F225B" d="M276.3,235.8c1.5-2.8-2.4-4.9-4.2-2.4c-9.5,12.7-25.8,15.5-40.5,18c-0.7,0.1-1.4,0.2-2.1,0.4
			c1.7-2.1,3.5-4.2,5.1-6.4c15.5-20.4,24.6-43.5,30.1-68.3c2.3-10.5,3.5-21.2,3.8-31.9c0-1-1.6-1.3-1.8-0.2
			c-10.3,48.7-45.1,90.6-88.1,112.8c-20.7,10.7-44.8,17-68,25.2c2.1-2.9,4.2-5.7,6.3-8.6c14.4-19.9,31.2-38.6,48.6-55.9
			c1.9-1.9-0.5-4.8-2.7-3.6c-23.3,12.4-43.7,28.1-62.4,46.7c-11.4,11.3-20.9,24.3-28.8,38.2c-7.6,4.2-14.9,8.9-21.4,14.5
			c-0.2-9.8-0.4-19.7-0.6-29.5c-0.9-58.8,0.3-117.7,0.9-176.5c0.3-29.4,1-58.7,2.4-88.1c1.4-29.3,3.3-58.5,4-87.8
			c0.1-3.9-6.1-4.8-6.9-0.9c-0.7,3.4-1.4,6.7-2,10.1c0-0.5,0-1.1-0.1-1.6c-0.2-3.6-5.8-4.8-6.6-0.9c-1.2,5.9-2.2,11.9-3.3,17.8
			c-0.2-2.9-0.5-5.7-0.9-8.6c-0.6-4.4-3-7.3-6-8.7c0-1.4,0-2.9,0.1-4.3c0-1.5-2.3-1.9-2.6-0.4c-0.2,1.3-0.5,2.5-0.7,3.8
			c-2.7-0.3-5.5,0.6-7.6,2.6c-2.9-1.5-7.5,0-8,4.4c-9.8,85-16.2,170.5-20.8,256c-2.9-1.3-5.9-2.6-8.8-3.8
			c-15.4-6.2-31.5-10-47.1-15.7c-1.6-0.6-3.3-1.2-4.9-1.9c1.5,0.6-3.2-1.4-3.7-1.6c-3.7-1.7-7.4-3.4-11-5.3
			c-7.1-3.8-13.8-8.4-20-13.5c-6.2-5.1-12.1-10.6-17.4-16.6c-5.5-6.2-8.7-15-12.7-22.2c-1.3-2.4-5.4-1.4-5.2,1.4
			c0.6,8.4,3.2,16.4,6.5,24.1c3.4,8,6,16.3,10.4,23.9c9.3,15.8,22.8,29.7,38.6,39c7.3,4.3,15,7.9,22.8,11.4c4.7,2.1,9.4,4,14.2,5.9
			c1.9,0.8,3.8,1.5,5.6,2.3c0.2,0.1,0.3,0.1,0.4,0.2c1.1,0.5,2.3,1,3.4,1.5c7.6,3.4,15.2,7.1,22.2,11.5c1.2,0.7,2.3,1.5,3.4,2.3
			c-0.4-0.3,0.3,0.3,1.3,1c-1.6,32.6-2.9,65.2-4.1,97.8c-2,53.7-2.8,107.5-3.5,161.2c-0.4,26.5-0.7,53.1-0.6,79.6
			c0.1,27.2-0.5,54.5,0.8,81.6c0.8,16.9,25.6,17,26.2,0c0-0.4,0-0.8,0-1.2c6.5,4.6,17.4,3,22.3-3.4c5.2-1.6,9.4-5.7,8.6-11.9
			c-0.1-0.8-0.2-1.6-0.3-2.4c0,0,0,0,0,0c1.7,11.2,3.7,22.2,6.4,33.1c4.2,17,31.1,13.4,30.5-4.1c-1-32.6-6.2-65-9.5-97.4
			c-3.3-32.5-6.1-65.1-8.3-97.7c-2.6-38.2-4.6-76.3-6.1-114.6c0.5-0.8,1.1-1.7,1.8-2.6c0.1-0.2,0.2-0.3,0.3-0.5
			c0.2-0.2,0.4-0.5,0.7-0.8c0.9-1.1,1.9-2.2,2.9-3.2c2.5-2.4,5.2-4.4,7.8-6.6c4.6-3.8,9.1-7.7,13.7-11.5c0.3-0.2,0.5-0.4,0.6-0.5
			c0.1,0,0.1-0.1,0.2-0.1c1.2-0.9,2.4-1.8,3.7-2.6c2.9-2,5.9-3.9,8.9-5.7c5.3-3.2,10.8-6,16.4-8.7c2.9-1.4,5.8-2.7,8.8-3.9
			c-0.3,0.1,3.2-1.3,3.3-1.4c2.2-0.9,4.5-1.8,6.7-2.7c14.7-5.9,29.5-11.8,43.9-18.5c7.9-3.7,15.4-8,22.5-12.7
			c0.8-0.2,1.7-0.6,2.5-1.3C220.9,263.7,260.4,265.9,276.3,235.8z"/>
		<path fill="#3F225B" d="M559.9,259.4c9.4-6.9,17.6-14.3,24.9-23.5c3.1-3.9,5.9-8,8.6-12.2c16.3-18.9,28.1-42,34.1-66.2
			c3.4-13.8,5.2-28.2,4.9-42.4c-0.1-5-7.4-4.9-7.7,0c-1.6,26-11.1,50.4-26.8,71.2c-10.1,13.4-23.6,24.7-37.9,33.3
			c1.3-7.9,2-15.9,3.5-23.7c3-16,7.3-32.4,13.2-47.5c1.3-3.3-3.5-4.6-5.3-2.2c-10.6,13.8-20.2,27.6-28.4,43
			c-7.4,14.1-14.9,29.5-16.6,45.6c-23.2,7.8-47.4,12.2-71,18.5c-19.9,5.3-39.8,11.6-58.3,20.8c-0.3-7.5-0.5-15-0.8-22.5
			c-2.1-53.3-4.4-106.5-7.4-159.7c-1.5-26.6-3.2-53.3-6-79.8c-1.4-13.3-3-26.6-4.8-39.9c-0.9-6.8-1.8-13.5-2.8-20.3
			c-1.1-7.1-3-13.9-4.8-20.9c-1.1-4.3-8.5-4.8-9.2,0c-0.5,3.5-1.1,7-1.6,10.5c-0.4-3.2-0.7-6.4-1.2-9.6c-0.8-5.6-7.3-9.5-12.5-9.5
			c-7.6,0-12.3,5.9-13,13c-1.6,16.5-1.7,33.2-1.9,49.8c-0.2,16.6-0.7,33.2-0.7,49.8c0.1,19.2,0.1,38.4,0.1,57.7
			c-8.5-2.5-17.2-4-25.9-6.1c-2.3-0.6-4.5-1.2-6.8-1.8c4.1-12.5,4.2-26.7,2.1-39.1c-1.3-7.8-5-15.2-9.8-21.4
			c-4.1-5.4-10-11.6-16.6-13.9c-1-0.4-1.6,0.8-1.2,1.6c1.3,2.9,3.2,5.4,4,8.6c0.8,3.3,1.7,6.4,2,9.9c0.6,6.5,0.1,13.2-0.4,19.8
			c-0.7,8.6-3.1,17.1-4.7,25.7c-9.3-4.3-18.3-9.2-26.9-14.8c-9.5-6.3-15.9-11.3-24.2-19c-8.2-7.6-15.7-16-22.3-24.9
			c-6.8-9.2-12.6-19-17.2-29.5c-4.8-10.8-7.1-21.8-10.1-33.1c-0.4-1.5-2.6-1.1-2.6,0.4c-0.3,10.9,2,22.6,4.4,33.2
			c2.5,11,6,22,10.3,32.4c3,7.5,6.6,14.8,10.6,21.9c-7.4-0.1-14.9,0.2-22.1-1.4c-11.4-2.5-24.8-5.6-28.5-18.2
			c-0.4-1.4-2.1-0.9-2.3,0.3c-1.9,14.3,8.1,26.5,20.1,32.7c7.8,4,17.5,4.2,26.2,4.5c5.1,0.1,10.1-0.1,15.2-0.1c1,0,1.9-0.1,2.9-0.1
			c5,6.9,10.5,13.4,16.5,19.5c17.8,18,38.5,31.2,62,40.5c10.8,4.3,22.6,7.1,34,9.3c3.9,0.7,7.7,1.8,11.5,2.7c0,0.9,0,1.7,0,2.6
			c0,66.4,0.5,132.7,0.4,199.1c-0.1,51.5-0.6,103-1.6,154.5c-16-5.9-34.2-8.2-50.1-12.7c-13.9-3.9-26.4-10.4-37.8-19.4
			c-11.4-9-20.4-20.5-29.2-31.8c-1.1-1.4-3.4,0.4-2.5,1.9c10.5,16.7,20.7,34.7,34.2,49.3c-4.6,0.4-9.2,0.7-13.9,0.3
			c-9.1-0.7-17.9-3.7-25.8-8.4c-1.6-0.9-3.1,1.2-1.9,2.5c13.4,14.5,36.3,25.5,56.1,19.4c0.2,0,0.3-0.1,0.5-0.2
			c1.7,1.3,3.5,2.5,5.4,3.6C278.3,501,294.7,505,310,510c6.2,2.1,12.7,4.8,18.9,8.2c-0.5,21.3-1.2,42.7-1.9,64
			c-0.5,13.9-1,27.8-1.6,41.8c-0.3,7-0.7,14.1-0.8,21.1c-2.3,3.3-3.2,7.7-2,12.7c1.1,4.3,2.1,8.5,3.2,12.8c4.2,16.9,31.8,18,35.2,0
			c1.4-7.4,2.3-14.8,2.9-22.2c0.4,1.7,0.9,3.4,1.5,5.1c5.6,16,26.5,15.8,32.2,0c3.2-8.7,3.2-17.3,3.4-26.4c0.2-8.7,0.3-17.3,0.4-26
			c0-16.6,0.1-33.3,0-49.9c0-33.3-0.3-66.6-0.7-99.9c-0.4-38-1-75.9-1.8-113.9c1.6-1.2,3.3-2.4,5.5-3.8c9.7-6.6,20.2-12,30.8-17
			c4.1-1.9,8.2-3.7,12.4-5.4c6.5,4,12.3,9,19.2,12.5c15.9,8.2,33.4,12.2,51.2,12c16.5-0.2,32.5-4.6,47.1-12.2
			c6.8-3.5,12.5-8.4,18-13.7c5.3-5.2,8.9-11,13.1-17c1.4-2-1.5-5.1-3.5-3.5c-5.3,4.1-11.9,6.9-17.9,9.7c-6.4,2.9-13.7,4.9-20.5,6.7
			c-13.6,3.6-28,3.4-40.7,0.4c-9.6-2.2-17.3-5.7-25.1-10.4c3.7-1.4,7.4-2.8,11-4.3C520.9,283,541.3,273.1,559.9,259.4z"/>
	</g>
	<g clip-path="url(#SVGID_2_)">
		<path fill="#221442" d="M336.3,59c15.9-9.7,31.3-25,36-43.5c0.3-1.2-1.3-2.4-2.3-1.3c-12.2,14.7-25.2,26.7-43.7,32.4
			c-5.7,1.8-11.2,2.6-16.9,3.3c5.6-6.5,10.8-13.5,15.4-20.9c6.1-9.8,10.2-20.8,14.4-31.5c4.2-10.9,7.4-22.5,8.7-34.1
			c0.2-1.4-1.9-1.5-2.3-0.3C342-25.5,337.7-14.5,331.9-4c-5.6,10.1-13.6,19-21.4,27.4C297,38,280.7,50.6,263,59.9
			c-6.6,2.7-13.4,4.9-20.3,6.8c-10.6,2.1-21.3,3.8-31.9,5.8c-17.6,1.6-35.4,0.6-52.8,4c-4.4,0.9-8.9,2.1-13.3,3.7
			c0.4-3.2,0.9-6.4,1.3-9.6c3.9-26,9.9-52.1,18-77.2c8.1-25.2,17.2-50.9,30-74.1c1.3-2.4-1.9-5.1-3.9-3
			c-18.4,20.5-33.9,42.1-45,67.4c6.2-15,14-29.4,23.6-42.4c1.4-1.9-1.6-4-3.1-2.4c-8.7,8.6-16.5,17.9-23.3,27.7
			c1.2-3.1,2.4-6.1,3.7-9.2c1.1-2.7-2.2-4.8-3.9-2.3c-33.4,48-48.4,107.2-53.2,164.7c-1.1,12.7-1.7,25.5-1.8,38.2
			c-14-21.4-31.6-41.3-42.3-63.7c-1.1-2.2-2.1-4.4-3.1-6.7c5.3-9.9,7.7-21.3,8.3-32.4c0.4-6.4-0.1-13.2-0.5-19.6
			c-0.4-6.1-0.7-12.3-2.6-18.1c-0.1-0.5-0.9-0.5-1,0c-2.5,11.7-3.3,23.1-7.9,34.3c-1.7,4-3.4,8.1-5.1,12.2c-3.5-11.3-6-23-7.5-34.6
			c-1.5-11.3-1.7-22.7-1-34c0.8-12.2,4.5-23.9,7.3-35.7c0.1-0.5-0.5-0.7-0.7-0.3c-5.9,9.8-9.5,21-12.4,32
			c-3.1,11.5-5.5,22.9-6.7,34.8C9.1,49.9,11.8,75,20.8,97.3c4.6,11.4,10.3,22.3,17,32.6c6.6,10,14.4,19.2,21.8,28.5
			c11.8,15.1,22.6,30.3,28.3,48.4c1.7,33.9,5.3,67.7,8.6,101.5c5.4,54.3,8.8,108.5,6.6,163c-1.1,27-3.3,53.9-6,80.8
			c-2.7,27.5-6.2,55-7.8,82.5c-0.9,14.9,23.6,18.4,26.2,3.6c0.8-4.7,1.6-9.4,2.4-14.1c3.2,1.5,7.1,1.6,10.1,0.1
			c2.8,9.3,16.9,11.6,20.6,0.1c1-3.2,2-6.4,2.9-9.7c0.8,1.4,1.9,2.4,3.2,3.2c-0.4,2.7-0.7,5.3-1.1,8c-0.8,5.7,1.3,11.3,7.4,13
			c5.3,1.5,11.7-1.8,13-7.4c13-57.7,9.7-119,2.7-177.3c-7.2-59.7-18.5-119-28.9-178.2c-1-5.5-1.9-11-2.8-16.5
			c-0.6-6.3-1.2-12.6-1.7-18.8c-3.4-39.6-4.8-79.5-2.4-119c3.5-2.1,7.2-4,11.3-5.6c13.2-5.2,27.1-7.9,41.1-10.1
			c28.1-4.4,55.8-10.4,80.4-25.4c4.5-2.8,8.9-5.8,13-9c6.7-1.5,13.5-1.4,20.6-2.3C317.3,68,327.5,64.4,336.3,59z"/>
		<path fill="#221442" d="M629.7-49.1c-0.8,1.9-1.6,3.7-2.5,5.6c-1.1-0.1-2.4,0.5-2.8,1.8c-2.7,7.9-6,15.6-9.6,23.3
			c-1.6,2.8-3.3,5.6-5.1,8.3c-7.9,12.2-16.6,24-26.3,34.9c-9.9,11-20.6,21.3-32.1,30.4c-6,4.7-12.3,8.8-18.8,12.7
			c0.3-21.7,0.6-43.4,1-65.1c0.2-12.6,0.4-25.2,0.4-37.9c0-6.6-0.2-13.3-0.3-19.9c-0.1-6-3.4-11.7-5.8-17.2c-0.7-1.7-3.5-1.5-4.2,0
			c-1.3,2.4-2.5,4.7-3.7,7.1c0-1.5-0.1-3-0.1-4.4c-0.1-3.1-3.7-3.8-5.4-2.1c-0.9-2.2-4.7-2.2-5.4,0.4c-2.7,9.8-5.1,19.7-7.3,29.6
			c-2.2-3.3-6.1-5.5-10.1-5.5c-7,0-11.1,5.4-11.8,11.8c-2,17.4-3.8,34.7-5.4,52.2c-6,0.2-11.5-0.3-17.7-3.3
			c-7.9-3.7-15.5-9.6-20.9-16.5c-6.2-8-10.8-17.1-15.4-26c-4.7-9.3-10-18.2-14.7-27.6c-0.4-0.8-1.6-0.4-1.6,0.4
			c-0.1,6.7-0.3,13.3,0,19.9c-0.3,0-0.6,0.2-0.8,0.5c-4.1,9.6-1.6,23.2,1.9,32.7c4.4,11.8,11.1,22.7,20.3,31.3
			c9.8,9.1,21.6,15.7,34.4,19.6c3.8,1.1,7.6,1.9,11.5,2.5c-3.2,37.6-5.9,75.2-8.8,112.7c-0.9,11.9-1.8,23.9-2.6,35.8
			c-14.1-10-29.2-18.4-43.6-27.9c-13.3-8.8-26.6-18.9-36.2-32.1c-6.5-8.9-11.2-18-13.9-28.7c-2.8-10.9-2.7-22.9-0.9-33.9
			c0.1-0.4-0.5-0.6-0.7-0.2c-7.1,20.3-6.2,41.9-0.4,62.4c1.7,6.2,4.5,12.2,7.9,17.9c-3.8-0.9-7.6-2-11.4-2.9
			c-11.1-2.7-20.7-11.2-22.6-22.7c-0.1-0.7-1.4-0.7-1.5,0c-1.7,12.7,4.4,24.4,13.3,33c9.3,9,24.2,13.2,37.8,12.9
			c2.6,2.7,5.2,5.3,7.9,7.7c14,12.7,29.7,23.2,44.9,34.6c0.4,0.3,4.4,3.4,2.8,2.1c1.3,1,2.6,2,3.9,3c0,0,1.5,1.1,2,1.6
			c2.9,2.3,5.7,4.6,8.4,7c-2.9,43-5.4,86-7.7,129c-2.2,40.4-4.3,80.8-6,121.2c-1.7,40.4-3.7,80.8-4.1,121.3
			c-0.1,7.3,6.1,13.4,13.4,13.4c7,0,12.1-5.2,13.2-11.8c2.4,1,5.2,1,7.4-0.3c0.1,0,0.1,0,0.2-0.1c0.1,1.3,0.1,2.6,0.2,3.8
			c0.8,14.3,1.3,28.6,3.9,42.7c0.9,4.9,6.2,8.3,10.8,8.3c6.5,0,10.8-5.1,11.2-11.2c0.6-8,0.6-16.1,0.3-24.2c0.4-7.7,0.7-15.5,1-23.2
			c0.2,9.9,0.5,19.7,0.9,29.6c0.6,15.1,23,15.1,23.4,0c1.8-66.4,0.8-133,1.3-199.5c0.4-66.5,1.2-133,2.5-199.4
			c0.7-38.6,1.7-77.2,2.4-115.9c1.7-1,3.3-2,5-3c8.3-5,16-10.7,23.4-16.9c13.9-11.6,25.8-25,36.2-39.7
			c10.3-14.5,18.1-30.4,24.2-47.1c5-13.6,7.3-27.3,8.3-41.5c1.3-5.4,2.4-10.8,3.2-16.2C632.4-49.5,630.4-50.7,629.7-49.1z"/>
	</g>
	<path clip-path="url(#SVGID_2_)" fill="#5F478C" d="M477.6,537.5c1.6-1,3.3-1.8,5.3-2.3c1.1-0.2,0.7-1.7-0.2-1.8
		c-2.5-0.3-5.1-0.3-7.6,0.1c2.2-2.1,4.7-3.8,7.5-5c1.1-0.5,0.4-1.9-0.5-2c-5.9-0.5-11.2,1.6-15.3,5.3c-1.9-3.2-5.1-5.5-9-6.7
		c-1.1-0.4-1.9,1.4-0.8,1.9c1.8,0.9,3.2,2.5,4.1,4.4c-0.3-0.3-0.7-0.6-1-0.8c-3-2.3-8.2-2.8-11.6-1.2c-0.5,0.2-0.4,1,0.1,1.1
		c2.3,0.4,4,1.2,5.5,2.6c-47-8.1-100.1-12.7-156.4-12.7c-10,0-19.8,0.1-29.6,0.4c0.1-0.1,0.1-0.1,0.2-0.2c2.2-2.5,5.5-3.8,8.6-4.6
		c0.5-0.1,0.6-1,0-1.1c-3.5-0.6-6.7,0.1-10,1.5c-0.8,0.3-1.6,0.7-2.5,1.2c0-0.3,0.1-0.7,0.2-1c0.3-1.4,1.5-2.6,2.6-3.5
		c0.4-0.3,0.1-1-0.4-1c-2.1,0.2-3.5,1.3-4.9,2.8c-0.2,0.2-0.4,0.4-0.5,0.6c-1.4-1.5-3.2-2.7-5.4-3.3c-0.4-0.1-0.7,0.3-0.5,0.6
		c0.7,1.2,1.4,2.5,1.9,3.9c-5.3-2.4-11.6-2.2-17.2-0.6c-0.5,0.1-0.4,0.8,0.1,0.9c3.5,0.3,6.5,1.8,9.6,3.3c0.6,0.3,1.1,0.6,1.6,1
		c-30.1,1.4-58.9,4.1-86,7.9c0.8-0.9,1.8-1.7,2.9-2.4c0.3-0.2,0.2-0.9-0.2-0.8c-3.2,0.2-6.2,1.5-8.5,3.6c1.4-2.6,3-4.9,6.1-5.5
		c0.6-0.1,0.6-1.2,0-1.3c-3.7-0.6-8.3-0.4-11.2,2.5c-0.9,0.9-1.7,2-2.4,3.1c-1.4-2.2-3.8-3.5-6.3-4.2c-0.5-0.1-0.8,0.5-0.5,0.8
		c1.5,1.4,2,3.3,2.2,5.2c0,0.1,0,0.2,0,0.3c-0.4-0.3-0.7-0.6-1-0.9c-3.2-2.4-6.4-2.2-10.2-2.1c-0.9,0-1,1.2-0.2,1.5
		c2.1,0.7,3.3,2.4,4.5,4.1c-112.7,19.7-190,59.9-190,106.3c0,65.8,155.4,119.1,347.2,119.1s347.2-53.3,347.2-119.1
		C644.8,596.2,577.9,558.4,477.6,537.5z"/>
	<g clip-path="url(#SVGID_2_)">
		<g>
			<path id="XMLID_895_" fill="#F6A678" d="M222.9,355.5l-0.6,0.1l1.8-9c0,0,6.6-9.7,16.3-5.5c0,0,4.7-0.8,5.4,1.8
				c0.7,2.7-1.5,3.4-1.5,3.4s2.6,2.9-0.6,5.4c0,0,2.6,0.7,1.4,3.7c-1.3,3.3-8.1,1.4-8.1,1.4s-9.6,6.4-14.8-0.3l0.2-0.8L222.9,355.5z
				"/>
			<path id="XMLID_890_" fill="#DC8858" d="M223.9,351.1c0,0,5.9,2,9.9-5.5c0,0,2.7,2,6.1,1.1c0,0-2,1.8-5.6,0.4c0,0-3,4.2,1,5.8
				c4,1.7,7.2-0.8,7.2-0.8s-2,2.3-7.3,2.1c-0.6,0.5-0.5,1.9,0,2.3C231.4,358,224.2,359.1,223.9,351.1z"/>
		</g>
		<polygon fill="#FFFFFF" points="220.1,343 226.1,342.3 223.1,359.2 215.6,360.2 		"/>
		<path fill="#C27534" d="M159.3,297.1c0,0-16.8,6.5-19,24.7c-1.2,9.8,7.5,53.2,16.9,52c9.4-1.1,59.6-11.2,59.6-11.2l5.2-21.4
			c0,0-26,2-47.9,2.5C174.2,343.8,172.5,309.9,159.3,297.1z"/>
		<g>
			<path fill="#A36227" d="M161,360.2l6.2-29l2.7,18.6l19.3-6.6c-5,0.2-10.1,0.4-14.9,0.5c0,0-1.7-33.8-14.9-46.6
				c0,0-16.8,6.5-19,24.7c-1.2,9.8,7.5,53.2,16.9,52c9.4-1.1,59.6-11.2,59.6-11.2l0.1-0.4l-53.7,4L161,360.2z"/>
		</g>
		<path fill="#FFFFFF" d="M110.3,554c-0.6-4.1-1.1-8.3-1.7-12.4c5.2-0.7,10.1-0.9,15.3-1.6c0,4.1-0.2,7.8-0.2,11.9
			C119.9,554.3,114.8,554.8,110.3,554z"/>
		<path fill="#FFFFFF" d="M52.5,556.4c0.3-4.2,0.7-8.3,1-12.5c5.2,0.5,10,1.3,15.3,1.7c-0.9,4-1.9,7.6-2.7,11.6
			C61.8,558.7,56.7,558.2,52.5,556.4z"/>
		<path fill="#292828" d="M106.5,565.3c-0.6-4.9,0.5-10.1,3.1-14.3c4.7,1.1,10.1-0.3,13.9-3.3c3,0.1,5.5,1.7,7.7,3.7
			c2.3,2,4.4,4.2,7,5.6c4,2.1,8.8,2,13.3,2.5c4.5,0.5,9.5,2.1,11.6,6.1c-17,0.6-33.8,1.3-50.8,1.9c-1.2,0-2.5,0.1-3.6-0.3
			C107.6,566.8,106.7,566.5,106.5,565.3z"/>
		<path fill="#292828" d="M49.7,569.2c-0.6-4.9,0.5-10.1,3.1-14.3c4.7,1.1,10.1-0.3,13.9-3.3c3,0.1,5.5,1.7,7.7,3.7
			c2.3,2,4.4,4.2,7,5.6c4,2.1,8.8,2,13.3,2.5c4.5,0.5,9.5,2.1,11.6,6.1c-17,0.6-33.8,1.3-50.8,1.9c-1.2,0-2.5,0.1-3.6-0.3
			C50.8,570.6,49.9,570.4,49.7,569.2z"/>
		<path fill="#A36227" d="M114.3,258.3c0,0,9.4-17.3,65,26c0,0-6.7,11.1-18.9,14.7c0,0-11.7,64.6-3.5,139.3
			c-25.7,4.3-49.7-5.7-73.6-15.9l35.7-143.1L114.3,258.3z"/>
		<path fill="#C27534" d="M107.5,435.2l13.1,47c0,0-17.2,38.7-15.1,61.1c0,0,12.4,4,22.9,0c0,0,3.4-37.7,14.3-60.9l-2-50.4
			c0,0,4.3-17.6,4.1-27.8L62.4,379c0,0-4.6,41.3,5,94c0,0-14.7,45.7-18.9,70.9c0,0,10.8,7.4,28.8,1.2c0,0-2.2-24.1,7.5-46.5
			C94.5,476.3,107.5,435.2,107.5,435.2z"/>
		<g>
			<path fill="#A36227" d="M140.6,432c0,0,4.3-17.6,4.1-27.8L62.4,379c0,0-2.7,24,0.3,58.8c8.6,5.3,22.3,13.1,32.2,15.3v19.2
				c6.8-18.8,12.6-37.2,12.6-37.2l13.1,47c0,0-2.8,6.3-6,15.4l10.8-15.4l-5.9-46.4c0,0,3.8-1.5,8.2-5.2c0,0-9.4,2.7-13,1.9l-3.2-3.1
				l3.8-8.2c0,0,13.2,3.1,23.3,0v10.9l1.7,50.2c0,0-4.7,11.5-5.6,23.9c2.1-8.3,4.7-16.7,8-23.8L140.6,432z"/>
		</g>
		<path fill="#D9D8D8" d="M78.4,401c17.1,15.7,42.4,22,64.8,15.7c5.9-8.1,6.8-18.6,7.5-28.6c2.1-29.7,4.3-59.4,6.4-89
			c-10-5.1-21.5-10.4-32.3-7.7c-6.2,1.5-11.6,5.5-16.1,10.1c-9.7,9.8-16.3,22.3-20.8,35.4c-4.5,13.1-7,26.7-9.5,40.3
			C76.9,384.9,76.7,393.4,78.4,401z"/>
		<path fill="#E7E6E6" d="M78.3,401c15.8,15.7,39.3,22,60,15.7c5.5-8.1,6.3-18.6,7-28.6c2-29.7,3.9-59.4,5.9-89
			c-9.2-5.1-19.9-10.4-30-7.7c-5.8,1.5-10.7,5.5-14.9,10.1c-9,9.8-15.1,22.3-19.3,35.4c-4.2,13.1-6.5,26.7-8.8,40.3
			C76.9,384.9,76.7,393.4,78.3,401z"/>
		<g>
			<path fill="#D9D8D8" d="M146.2,294.1c-7-2.8-14.4-4.4-21.5-2.7c-6.2,1.5-11.6,5.5-16.1,10.1c-9.7,9.8-16.3,22.3-20.8,35.4
				c-4.5,13.1-7,26.7-9.5,40.3c-1.4,7.7-1.7,16.2,0.1,23.9c9.7,8.9,22.1,14.8,35,17.1c4.4-11.2,14.1-38.8,16.4-66.9
				C132,324.1,141.5,303.1,146.2,294.1z"/>
		</g>
		<path fill="#F6A678" d="M148.8,202.1c6.1-0.4,12.4,0.9,17.7,4c5.3,3.1,9.6,8,11.6,13.8c4,11.7-1.6,25.2,2.7,36.8
			c1.8,4.8,5.3,9.3,4.9,14.4c-0.4,4.7-4.1,8.4-7.7,11.5c-6.5,5.7-13.3,11.1-20.4,16.2c-3.8,2.7-7.9,5.4-12.5,6.2
			c-5,0.8-10.3-0.8-14.3-3.8c-4.1-3-7-7.4-8.8-12.2c-2-5.3-2.7-11-3.4-16.7c-0.8-6.6-1.6-13.2-2.4-19.9c-0.8-6.9-1.7-14-0.5-20.8
			c1.4-7.9,5.5-15.2,11.4-20.5C133.1,205.9,140.8,202.6,148.8,202.1z"/>
		<path fill="#763E1D" d="M116.9,220.5c-5.8,12-4.7,27.1,2.7,38.2c-0.2-2.1-0.4-4.2,0.1-6.3c0.4-2.1,1.6-4.1,3.4-5.1
			c2.3-1.3,5.4-0.6,7.4,1.1s3.1,4.4,3.4,7.1c0.3,2.6,0,5.3-0.3,8c2.8,0.2,5.6,0.4,8.3,0.5c-2.6-6.3-5.2-12.9-4.4-19.7
			c1-8.4,7-15.2,12.7-21.5C140.3,216.9,127.6,216.1,116.9,220.5z"/>
		<path fill="#D9D8D8" d="M119.1,268.6c0,0,9,26.4,25.8,38.8c0,0,8.1-2.1,12-6.8c0,0,0.1,11.2-5.3,17.9l-6.9-8.8l-12.2,7.1
			C132.5,316.8,112.6,277.2,119.1,268.6z"/>
		<path fill="#FFFFFF" d="M119.1,266.3c0,0,9,26.4,25.8,38.8c0,0,8.1-2.1,12-6.8c0,0,0.1,11.2-5.3,17.9l-6.9-8.8l-12.2,7.1
			C132.5,314.5,112.6,274.9,119.1,266.3z"/>
		<path fill="#7E2818" d="M144.7,307.4l-6.6,3.8l1.6,6.2c0,0-7.3,8.4-7.5,15.5c-0.3,7.1-3.1,24.7-5.2,29.3s-6.4,9.9-6.4,9.9
			l6.4,14.5l11.2-9.1c0,0,5.1-14,5.3-22.4c0.1-8.4-5.1-28.1,2.2-36.7l3.4-5.7L144.7,307.4z"/>
		<path fill="#763E1D" d="M158.7,267.4c4.4-3.1,9.3-5.4,14.5-6.9c3.2-0.9,6.6-1.6,9.9-0.9s6.4,2.8,7.5,6c0.8,2.4-0.1,5.7-2.5,6.5
			c-1.6,0.5-3.3-0.1-4.9-0.6c-5.9-1.7-12.3-1.2-17.9,1.3c-1.7,0.8-3.4,1.7-5.2,1.9c-1.9,0.1-4-0.9-4.2-2.8
			C155.5,270,157.2,268.4,158.7,267.4z"/>
		<path fill="#DC8858" d="M165.7,283c4.3-4.1,10-6.5,15.9-6.7c-3-1-6.3-0.9-9.2,0.3C169.6,277.9,167.1,280.1,165.7,283z"/>
		<path fill="#F39B68" d="M177.2,250c2.1,0.8,4.2,1.9,6,3.2c1.4,1,2.8,2.4,2.6,4.1c-0.2,1.5-1.8,2.5-3.3,2.6c-1.5,0.2-3-0.3-4.5-0.6
			s-3.1-0.4-4.4,0.3c-0.8,0.5-1.4,1.2-2.2,1.8s-1.7,1.1-2.6,0.8c-0.8-0.3-1.4-1.1-1.5-2c-0.2-0.9,0-1.7,0.1-2.6
			c0.3-1.7,0.6-3.3,1.3-4.9s2-2.9,3.6-3.4C173.9,249,175.7,249.4,177.2,250z"/>
		<path fill="#F6A678" d="M125.5,259.2c1.8,0.7,3.8,1.2,5.5,0.2c1.7-1,2.5-3.2,2.2-5.1c-0.2-2-1.2-3.7-2.3-5.4
			c-1.4-2.3-3.3-4.7-5.9-5.1c-2.5-0.4-5,1.2-6,3.6s-0.6,5.1,0.8,7.2C121,256.7,123.2,258.2,125.5,259.2z"/>
		<path fill="#DF8F45" d="M184.3,207c-0.2,6.3,0.2,13.4,0,19.7c4.2,4,9.2,9,13.4,13c-33.2-2.4-66.1-8.1-98.2-17
			c5.7-2.5,10.9-4.7,16.6-7.2c3.5-5.9,7.1-12.2,10.5-18.1C145.8,191.4,168.2,194.9,184.3,207z"/>
		<path fill="#763E1D" d="M184.3,225.1c0-2.4,0-4.9,0-7.4c-2.9-0.3-32-0.7-62.2-12.6c-1.6,2.8-3.3,5.7-4.9,8.5
			C140.8,224.7,176.7,226.1,184.3,225.1z"/>
		<path id="XMLID_776_" fill="#F9A371" d="M129,338.9c0,0,4.6-3.1,7.2-4.6c2.6-1.5,7.6-0.6,8-0.3c0.5,0.3,0.8,1.6,0.8,2.3
			c0.1,0.7,1.3,0.1,3.2,1.6c1.3,1,1.2,3.9-0.3,5.4c-0.2,0.2-0.2,0.7-0.3,1c-0.1,0.4-0.9,5.4-4.1,7c-4.7,2.4-17.7,1.1-17.3-0.4
			C126.3,350.5,129,338.9,129,338.9z"/>
		<path fill="#C27534" d="M114.3,258.3c0,0,12.5,18.7,32.1,27.3l-9.2,13.9l-2.8,5.3c0,0-9.6,14.3-11.8,47.8s-23.2,88.6-23.2,88.6
			s-26.7-4.6-52-26.7c0,0,12.6-83.3,50.2-128.9c0,0,5.1-5.4,10.6-7.3l2.4-3.5C110.7,274.8,109.3,264.1,114.3,258.3z"/>
		<g>
			<path fill="#A36227" d="M56.5,374.3c1,0.7,2.1,1.2,3.4,1.5l60.9-8.1c0.9-5.3,1.6-10.3,1.9-15c0.2-2.7,0.4-5.2,0.7-7.7l-60.4,8
				C60.5,360.5,58.3,367.7,56.5,374.3z"/>
		</g>
		<polygon fill="#FFFFFF" points="125.1,337 131.1,336.2 128.1,353.1 120.6,354.2 		"/>
		<path fill="#DF8F45" d="M97.7,285.6c0,0-32.3,23.6-41.5,70.2c0,0-3.6,13.1,5.9,12c9.4-1.1,59.6-11.2,59.6-11.2l5.2-21.4
			c0,0-13.8,1.9-35.7,2.4C91.3,337.6,110.9,298.4,97.7,285.6z"/>
		<path fill="#DC8757" d="M129,252.7c-0.5-1.2-1.4-2.2-2.3-3c-1.2-1.1-4.7-3-5.9-0.9c-0.1,0.1,0,0.3,0.1,0.3
			c0.8,0.3,1.5,0.3,2.2,0.7c0.3,0.2,0.6,0.4,0.8,0.6c-0.2,0.1-0.4,0.2-0.6,0.4c-0.3,0.3-0.6,0.6-0.9,0.9c-0.3,0.3-0.5,0.6-0.7,1
			c-0.2,0.4,0.3,0.8,0.6,0.5c0.2-0.2,0.5-0.4,0.8-0.5c0.3-0.2,0.3,0,0.7,0c0.6,0,1.2,0,1.8,0.2c0.2,0,0.3,0.1,0.4,0.1
			c0.2,0.4,0.4,0.8,0.6,1.3c0.2,0.4,0.2,0.9,0.5,1.2c0.2,0.4,0.6,0.6,0.7,1c0.3,0.6,1.2,0.4,1.3-0.2c0.1-0.5,0.4-1,0.4-1.5
			C129.6,254,129.2,253.2,129,252.7z"/>
		<path id="XMLID_407_" fill="#76471E" d="M169.1,240.4c0,0-3.2-4.7-8.4-0.8L169.1,240.4z"/>
		<path id="XMLID_406_" fill="#76471E" d="M173.4,240.6c0,0,2.6-3.8,6.8-0.6L173.4,240.6z"/>
		<circle id="XMLID_405_" fill="#76471E" cx="166.9" cy="244.6" r="1.7"/>
		<circle id="XMLID_404_" fill="#FFFFFF" cx="165.9" cy="243.6" r="0.7"/>
		<circle id="XMLID_403_" fill="#76471E" cx="174.5" cy="244.6" r="1.7"/>
		<circle id="XMLID_402_" fill="#FFFFFF" cx="173.7" cy="243.6" r="0.7"/>
		<polygon fill="#662113" points="148.9,312.8 144.7,307.4 138.1,311.2 138.7,313.3 144.1,309.6 148.2,314.1 		"/>
		<g>
			<path fill="#A36227" d="M71.6,353.4c0,0,9.5-9.7,19.7-11.1l18.6-5.4c-5.2,0.3-11.5,0.7-18.6,0.8c0,0,10.1-20.2,10.9-36.3
				c-3.1,9-10.8,30-16.9,38.1C85.4,339.4,77,343.8,71.6,353.4z"/>
			<path fill="#A36227" d="M62.3,363.7c-3.1-0.7-5.2-2.7-6.5-4.8c-0.4,3.8,0,9.7,6.4,8.9c9.4-1.1,59.6-11.2,59.6-11.2l0.2-0.9
				L62.3,363.7z"/>
		</g>
		<g>
			<path fill="#7E2818" d="M251,292l-4.4-0.8l-6.8,39.6l4.4,0.8c2.4,0.4,5.9-8.1,7.8-19.1C253.9,301.7,253.4,292.4,251,292z"/>
			
				<ellipse transform="matrix(0.9854 0.1702 -0.1702 0.9854 56.4865 -36.8455)" fill="#702416" cx="243.2" cy="311.1" rx="4.5" ry="20.1"/>
			<g>
				<path fill="#FEE8C9" d="M248.3,294.3c-1.9,3.2-3.9,9.4-5.2,16.8s-1.5,13.9-0.8,17.5c1.9-3.2,3.9-9.4,5.2-16.8
					S249.1,298,248.3,294.3z"/>
			</g>
			
				<rect x="239.4" y="331.2" transform="matrix(0.9854 0.1702 -0.1702 0.9854 60.5178 -36.183)" fill="#7E2818" width="3.9" height="7.4"/>
			<path fill="#7E2818" d="M240,341.4c1.1,0,2.1-0.1,3.2-0.3l0.4-2l-5.8-1l-0.5,3.2C238.2,341.4,239.1,341.4,240,341.4z"/>
			<path fill="#7E2818" d="M234.7,355.8l-0.3,1.7l5.8,1l0.2-1.4C238.5,357,236.6,356.7,234.7,355.8z"/>
		</g>
	</g>
	<path clip-path="url(#SVGID_2_)" fill="#221442" d="M670.2,22c-2.9-2.9-7-4.4-11-4.3c-1.2-15.2-2.5-30.5-3.7-45.7
		c-0.3-3.3-1.6-5.9-3.6-7.7c-0.7-6-4.9-11.4-11-13c-1.3-0.3-2.5-0.5-3.7-0.5c-1.9-2.4-4.8-3.9-8.1-3.6c-28.2,2.4-56.5,4.9-84.7,7.3
		c-1.3-4.6-4.5-8.3-9.8-9.8c-2.5-0.7-4.9-0.7-7.2-0.1c-0.1-2.1-0.1-4.2,0.1-6.3c0.6-6.9-10.4-8.2-11.9-1.6
		c-0.9,3.9-1.5,7.8-1.8,11.7c-10.2-0.1-20.3,1.5-30,4.8c-4.1-0.6-8.2-1.1-12.3-1.7c-0.1-1.7-0.3-3.4-0.6-5.2
		c-0.9-6.1-8-10.4-13.7-10.4c-1.8,0-3.5,0.4-5.1,1c-1.6-2.3-6.1-1.8-7.3,1.3c-2.4,6.6-3.9,13.7-3.9,20.8c-0.8,1.2-1.7,2.3-2.5,3.4
		c-2.3-1-5.1-1-7.8,0.5c-0.6-0.2-1.2-0.4-1.9-0.6c-0.4-0.1-0.7-0.1-1.1-0.2c-0.7-4.5-3.9-8.3-9.6-7.9c-20,1.4-40.1,2.8-60.1,4.2
		c-2.2-1.2-4.6-1.9-7.1-2.2c-1.4-1-3-1.6-4.9-1.7c-3.7-0.2-7.4-0.3-11.2-0.5c-0.5-2.6-0.9-5.2-1.1-7.8c-0.2-1.9-2.6-2.8-3.7-1
		c-1.7,2.7-3.1,5.5-4.2,8.4c-1.9-0.1-3.7-0.2-5.6-0.3c-1.6-1.5-3.7-2.4-6.2-2.4c-10.7,0.1-21.3,0.2-32,0.4c-4,0-6.7,2-8.1,4.6
		c-2.8,0.4-5.6,0.7-8.4,1.1c0.4-2.4,1.1-4.8,2.3-7.2c2.2-4.5-3-8.6-6.9-5.3c-4.3,3.7-7.5,8.3-9.7,13.3c-4.3,0.4-8.7,0.7-13,1.1
		c-1.7-1.2-3.9-2-6.2-2.3c-2.7-0.3-5.3-0.7-8-1c-1.8-1.7-4.3-2.8-7-2.8c-5.3,0-10.7-0.1-16-0.1c-2.4,0-4.6,0.8-6.3,2.2
		c-7.5,0.7-15.1,1.4-22.6,2.1c0.3-3.1,0.9-6.3,1.9-9.3c1.7-5-5.6-7.7-8.2-3.5c-2.7,4.4-4.8,9.1-6.3,13.9c-6,0.6-11.9,1.1-17.9,1.7
		c-0.4-0.1-0.8-0.2-1.2-0.3c-13.1-2.2-26.2-3.6-39.4-4.4c0.3-4.7,0.7-9.3,1.1-13.8c0.6-6.4-8.4-6.6-10.4-1.4
		c-1.9,4.9-3.7,9.7-5.3,14.6c-15.3-0.3-30.6,0.3-45.8,1.8c-0.8-0.4-1.7-0.8-2.6-1c-4.5-1.2-8.8,0-11.9,2.8
		C6.8-39.2-12.2-35-30.7-29.4c-0.9,0-1.7,0.3-2.5,0.8c-1.7,0.5-3.3,1-5,1.6c-4.4,1.4-7.6,5.2-7.6,9.9c0,4.1,3.1,9.3,7.6,9.9
		c0.8,0.1,1.7,0.2,2.5,0.3c1,3.3,2.5,6.5,4.4,9.5c3.3,5.1,7.8,8.8,12.9,11.4c0.3,0.4,0.5,0.7,0.8,1.1c9,11.6,25.1,12.8,38.4,10.1
		c12.7-2.5,23.9-11.1,32.6-20.3c0.8-0.8,1.6-1.7,2.4-2.7c4.3,3,9.4,4.9,15,5.5c5,0.6,9.9-0.1,14.6-1.7c5.6,12.1,16.3,21.1,29.4,25.7
		c8.6,3,18.4,3.1,27.4,2.4c9.3-0.6,18.7-2.2,27.4-5.6c5.5-2.2,10.7-5,15.4-8.5c2.3,1.1,4.7,2.1,7.1,3C215.1,31.3,242,20,254.3,0
		c6.3,9.5,16.4,16.6,27,20.3c18.9,6.8,38,2.7,53.7-7.6c2.5,3.2,5.3,6.1,8.4,8.7c13.6,11.3,30.4,13.7,46.5,6.6
		c1.8-0.8,3.6-1.8,5.3-2.9c5.3,1.2,10.8,1.6,16.3,1.1c19-1.5,35.6-11.4,46.9-26.6c0.7-1,1.4-2,2.1-2.9c4.8,3.5,10.3,6.2,16.4,7.8
		c16.5,4.3,34.8-0.1,48.3-10.3c8.9,12.9,22.8,22.1,37.9,26.3c7.7,2.1,15.6,2.8,23.3,2.2c2.6,6.8,6.4,13.3,11.7,19.2
		c17.8,19.9,54.6,23.2,72.2,1C675.2,36.6,676.4,28.2,670.2,22z"/>
	<path clip-path="url(#SVGID_2_)" fill="#503A7B" d="M460.9,605.2c-2.1-4.6-5.8-7.9-10.5-9.6c-0.2-0.1-0.3-0.1-0.5-0.2
		c-0.2-0.2-0.4-0.4-0.7-0.6c-3.8-2.5-7.6-4.9-11.5-7.4c-0.2-0.4-0.4-0.9-0.5-1.4c5.8,0.8,11.5,0.3,17.1-2.4
		c8.1-4,13.5-14.6,9.8-23.2c-4.4-10-16.1-11.9-25.5-8.8c-9.2,3-17,10.4-21.9,18.7c-7.6-0.2-15-2.3-21.1-7c-4.6-3.6-2.8-6.8,0-10.8
		c0,0,0.1-0.1,0.1-0.1c5.3-1.6,11-2.3,16.1-2.9c5.8-0.6,6.1-9.5,0-9.3c-7.9,0.2-16.8,1-23.5,5.5c-3.9,1.6-7.6,3.5-10.7,6.1
		c-1-0.1-2,0-2.8,0.5c-4.7,2.7-6.5,7.4-6.1,12.3c-0.2,0.7-0.4,1.4-0.6,2.1c-0.8,3,0.9,5,3.1,5.6c2,3.3,5.6,5.7,8.7,7.7
		c0.8,0.5,1.8,1.1,2.7,1.6c-14,7.4-27,16.4-38.9,26.8c-1.9,1.6-1.7,3.9-0.6,5.5c-1.6,1.1-3.1,2.3-4.7,3.4c-4.7,3.4-0.3,11.2,4.6,7.9
		c0.6-0.4,1.2-0.9,1.9-1.3c-0.1,0.1-0.1,0.1-0.2,0.2c-2.8,3.8,2.6,8.6,6.3,6.3c1.1-0.7,2.3-1.4,3.4-2.1c-1.4,3.5,3.3,7.8,6.7,5.4
		c3.9-2.8,7.7-5.5,11.6-8.3c0.7,0.3,1.4,0.3,2.2,0.1c-3.1,3.8,1.7,10.1,6.1,7.1c8.7-5.9,17.5-11.8,26.2-17.7c0.8,0,1.7-0.2,2.5-0.8
		c3.5-2.7,7.1-5.4,10.6-8.1c0.3-0.3,0.6-0.5,0.9-0.8c3.3,1.1,6.6,2.3,9.9,3.4c0.6,0.2,1.2,0.2,1.8,0.2c0.8,0.3,1.6,0.5,2.3,0.8
		c1.8,1.3,5,3.7,7.9,6.1c-2.7,2.2-4.3,4.9-5.1,7.9c-0.9,1.4-1.8,2.7-2.7,4.1c-2.1,3.2,0.5,6.4,3.5,6.8c0.8,2.8,4,4.8,6.8,3
		c0.3-0.2,0.6-0.4,1-0.6c1.6,1.9,4.9,2.4,7.1,0.8c2.2,0.5,4.7-0.5,5.5-3.3c0.3-1,0.6-2,0.8-3c0.6-2.1-0.2-3.9-1.6-4.9
		C462.9,620.4,464,612.1,460.9,605.2z"/>
</g>
</svg>
