<svg viewBox="0 0 48 48" xmlns="http://www.w3.org/2000/svg">
  <path d="m3.8 37 22 0-9.7 9.7C11 44.9 6.7 41.5 3.8 37ZM34 33.1 34 45.8C31 47.2 27.6 48 24 48 22.5 48 21 47.9 19.5 47.6l14.5-14.5zM0.4 19.5 14.9 34 2.2 34C0.8 31 0 27.6 0 24 0 22.5 0.1 21 0.4 19.5ZM24 17.5c-3.6 0-6.5 2.9-6.5 6.5 0 3.6 2.9 6.5 6.5 6.5C27.6 30.5 30.5 27.6 30.5 24 30.5 20.4 27.6 17.5 24 17.5ZM33.1 14 45.8 14C47.2 17 48 20.4 48 24c0 1.5-0.1 3-0.4 4.5l-14.5-14.5zM24 13.5c5.8 0 10.5 4.7 10.5 10.5 0 5.8-4.7 10.5-10.5 10.5C18.2 34.5 13.5 29.8 13.5 24 13.5 18.2 18.2 13.5 24 13.5ZM31.9 1.3c5.1 1.8 9.4 5.2 12.3 9.7l-22 0 9.7-9.7zM24 0c1.5 0 3 0.1 4.5 0.4L14 14.9 14 2.2C17 0.8 20.4 0 24 0Z" fill="#fff"/>
</svg>